<svg width="17" height="15" viewBox="0 0 17 15" fill="#FBC820" xmlns="http://www.w3.org/2000/svg">
    <path fill-rule="evenodd" clip-rule="evenodd" d="M12.4994 14.0009C12.632 14.0009 12.7592 13.9482 12.853 13.8544C12.9467 13.7607 12.9994 13.6335 12.9994 13.5009V1.70789L16.1454 4.85489C16.2393 4.94878 16.3666 5.00153 16.4994 5.00153C16.6322 5.00153 16.7595 4.94878 16.8534 4.85489C16.9473 4.76101 17 4.63367 17 4.50089C17 4.36812 16.9473 4.24078 16.8534 4.14689L12.8534 0.146894C12.807 0.100331 12.7518 0.0633877 12.691 0.0381812C12.6303 0.0129748 12.5652 0 12.4994 0C12.4336 0 12.3685 0.0129748 12.3078 0.0381812C12.247 0.0633877 12.1919 0.100331 12.1454 0.146894L8.14541 4.14689C8.05152 4.24078 7.99878 4.36812 7.99878 4.50089C7.99878 4.63367 8.05152 4.76101 8.14541 4.85489C8.2393 4.94878 8.36664 5.00153 8.49941 5.00153C8.63219 5.00153 8.75952 4.94878 8.85341 4.85489L11.9994 1.70789V13.5009C11.9994 13.6335 12.0521 13.7607 12.1459 13.8544C12.2396 13.9482 12.3668 14.0009 12.4994 14.0009ZM5.49941 0.000893772C5.63202 0.000893772 5.7592 0.0535722 5.85296 0.14734C5.94673 0.241109 5.99941 0.368286 5.99941 0.500894V12.2939L9.14541 9.14689C9.2393 9.05301 9.36664 9.00026 9.49941 9.00026C9.63219 9.00026 9.75952 9.05301 9.85341 9.14689C9.9473 9.24078 10 9.36812 10 9.50089C10 9.63367 9.9473 9.76101 9.85341 9.85489L5.85341 13.8549C5.80697 13.9015 5.75179 13.9384 5.69104 13.9636C5.6303 13.9888 5.56518 14.0018 5.49941 14.0018C5.43364 14.0018 5.36852 13.9888 5.30778 13.9636C5.24703 13.9384 5.19186 13.9015 5.14541 13.8549L1.14541 9.85489C1.09892 9.80841 1.06205 9.75322 1.03689 9.69248C1.01173 9.63174 0.998779 9.56664 0.998779 9.50089C0.998779 9.43515 1.01173 9.37005 1.03689 9.30931C1.06205 9.24857 1.09892 9.19338 1.14541 9.14689C1.1919 9.10041 1.24709 9.06353 1.30783 9.03837C1.36857 9.01321 1.43367 9.00026 1.49941 9.00026C1.56515 9.00026 1.63025 9.01321 1.69099 9.03837C1.75173 9.06353 1.80692 9.10041 1.85341 9.14689L4.99941 12.2939V0.500894C4.99941 0.368286 5.05209 0.241109 5.14586 0.14734C5.23963 0.0535722 5.3668 0.000893772 5.49941 0.000893772Z" fill="#FBC820"/>
</svg>
