<svg width="23" height="27" viewBox="0 0 23 27" fill="none" xmlns="http://www.w3.org/2000/svg">
<path d="M9.57278 0H6.88393H0.809142V0C0.348554 0.0736318 0 0.454063 0 0.920398V3.38704C0 3.85337 0.348554 4.23383 0.809142 4.29519L0.933626 4.30743H9.57278C10.7803 4.30743 11.7512 3.35022 11.7512 2.15984C11.7512 0.96946 10.7803 0.0122465 9.57278 0.0122465V0Z" fill="black"/>
<path d="M21.3738 4.58992H11.7512V8.89739H21.3738C21.8966 8.89739 22.3199 8.48013 22.3199 7.96471V5.51032C22.3199 4.9949 21.8966 4.57764 21.3738 4.57764V4.58992Z" fill="black"/>
<path d="M11.9504 4.58984C10.6309 4.58984 9.57275 5.64524 9.57275 6.93379V25.3295C9.57275 25.8449 9.996 26.2744 10.5313 26.2744H13.3819C13.9048 26.2744 14.3405 25.8572 14.3405 25.3295V6.93379C14.3405 5.63297 13.2699 4.58984 11.9628 4.58984H11.9504Z" fill="black"/>
</svg>
